<svg viewBox="0 0 100 32" version="1.1" xmlns="http://www.w3.org/2000/svg" preserveAspectRatio="none"><path d="M 0,28 C 2.7321593852857452e-17,27.553804511278194 3.8057971054405455e-17,26.390556390977444 0,25.76902255639097 C 3.8057971054405455e-17,25.147488721804493 -0.2,24.87705263157889 0,24.892330827067617 C 0.2,24.907609022556343 0.8,25.575819548872175 1,25.845413533834602 C 1.2,26.11500751879703 1,26.240781954887275 1,26.240300751879747 C 1,26.23981954887222 0.8,25.947548872180423 1,25.84300751879696 C 1.2,25.738466165413495 1.7999999999999998,25.61317293233084 2,25.717593984962424 C 2.2,25.822015037594007 2,26.238315789473678 2,26.36511278195487 C 2,26.491909774436063 1.8,26.385563909774383 2,26.35157894736838 C 2.2,26.31759398496238 2.8,26.078195488721846 3,26.19518796992486 C 3.2,26.312180451127873 3,26.95705263157893 3,26.93654135338344 C 3,26.91603007518795 2.8,26.132992481203054 3,26.09263157894742 C 3.2,26.052270676691784 3.8,26.591578947368433 4,26.73473684210527 C 4.2,26.87789473684211 4,26.743338345864693 4,26.80842105263161 C 4,26.873503759398524 3.8,27.316090225563904 4,27.06015037593985 C 4.2,26.804210526315792 4.8,25.856240601503814 5,25.528721804511328 C 5.2,25.201203007518842 5,25.441082706766906 5,25.422556390977423 C 5,25.40403007518794 4.8,25.58393984962405 5,25.43609022556391 C 5.2,25.28824060150377 5.8,25.328000000000035 6,24.683308270676726 C 6.2,24.038616541353417 6,22.466947368421057 6,22.21263157894736 C 6,21.958315789473662 5.8,23.31813533834582 6,23.411729323308233 C 6.2,23.505323308270647 6.8,22.8852330827068 7,22.68060150375943 C 7.2,22.47596992481206 7,22.316330827067624 7,22.388571428571375 C 7,22.460812030075125 6.8,22.80475187969921 7,23.04180451127818 C 7.2,23.27885714285715 7.8,23.43633082706772 8,23.57383458646622 C 8.2,23.711338345864718 7.8,23.692992481203024 8,23.729323308270676 C 8.2,23.765654135338327 8.8,23.83891729323305 9,23.755488721804483 C 9.2,23.672060150375916 9,23.417443609022587 9,23.31218045112785 C 9,23.206917293233115 8.8,23.284210526315768 9,23.229172932330798 C 9.2,23.174135338345828 9.8,23.093293233082697 10,23.036992481202994 C 10.2,22.98069172932329 10,23.018165413533794 10,22.947669172932283 C 10,22.877172932330772 9.8,22.58598496240596 10,22.68451127819544 C 10.2,22.783037593984922 10.8,23.126917293233053 11,23.440300751879683 C 11.2,23.753684210526313 11,24.217624060150403 11,24.25142857142859 C 11,24.285233082706778 10.8,23.68324812030071 11,23.60932330827063 C 11.2,23.535398496240546 11.8,23.90766917293232 12,23.881804511278187 C 12.2,23.855939849624054 12,23.583218045112755 12,23.479999999999972 C 12,23.37678195488719 11.8,23.37569924812029 12,23.36571428571428 C 12.2,23.355729323308267 12.8,23.44643609022555 13,23.430075187969905 C 13.2,23.41371428571426 13,23.321804511278152 13,23.28390977443605 C 13,23.24601503759395 12.8,23.55031578947367 13,23.240601503759397 C 13.2,22.93088721804512 13.8,21.7883308270677 14,21.735338345864683 C 14.2,21.682345864661666 14,22.84667669172929 14,22.97563909774432 C 14,23.10460150375935 13.8,22.374135338345845 14,22.38015037593983 C 14.2,22.386165413533817 14.8,23.091729323308225 15,23.005714285714244 C 15.2,22.919699248120263 15,22.812270676691735 15,21.95007518796993 C 15,21.087879699248123 14.8,19.45359398496236 15,18.69473684210522 C 15.2,17.935879699248076 15.8,18.37401503759399 16,18.15578947368422 C 16.2,17.93756390977445 15.8,17.58345864661654 16,17.60360902255638 C 16.2,17.623759398496222 16.8,18.28673684210523 17,18.256541353383426 C 17.2,18.22634586466162 17,17.971187969924785 17,17.452631578947347 C 17,16.93407518796991 16.8,16.00565413533834 17,15.663759398496232 C 17.2,15.321864661654127 17.8,15.786466165413513 18,15.743157894736816 C 18.2,15.69984962406012 18,15.395428571428537 18,15.447218045112752 C 18,15.499007518796967 17.8,16.1788872180451 18,16.002105263157887 C 18.2,15.825323308270672 18.8,14.794526315789453 19,14.563308270676679 C 19.2,14.332090225563904 19,14.473864661654172 19,14.846015037594016 C 19,15.21816541353386 18.8,16.10279699248116 19,16.424060150375897 C 19.2,16.745323308270635 19.8,16.235729323308288 20,16.452330827067698 C 20.2,16.668932330827108 20,17.413473684210558 20,17.50706766917295 C 20,17.600661654135344 19.8,17.088601503759353 20,16.920300751879658 C 20.2,16.751999999999963 20.8,16.874947368421072 21,16.66556390977447 C 21.2,16.456180451127867 21,15.980511278195523 21,15.873383458646643 C 21,15.766255639097762 20.8,16.04240601503759 21,16.129924812030065 C 21.2,16.217443609022542 21.8,16.13064661654136 22,16.310977443609026 C 22.2,16.491308270676694 22,16.847218045112754 22,17.031578947368402 C 22,17.21593984962405 21.8,17.29882706766922 22,17.232781954887265 C 22.2,17.166736842105312 22.8,16.88366917293233 23,16.70135338345864 C 23.2,16.519037593984947 23,16.514165413533835 23,16.321203007518807 C 23,16.12824060150378 22.8,15.88384962406021 23,15.736541353383508 C 23.2,15.589233082706807 23.8,15.561443609022536 24,15.5846616541353 C 24.2,15.607879699248063 23.8,15.657744360902203 24,15.852631578947324 C 24.2,16.047518796992446 24.8,16.621233082706762 25,16.55909774436091 C 25.2,16.496962406015054 25,15.60613533834589 25,15.541954887218058 C 25,15.477774436090225 24.8,16.194766917293173 25,16.23819548872175 C 25.2,16.281624060150328 25.8,15.968180451127857 26,15.75909774436095 C 26.2,15.550015037594044 26,15.09732330827068 26,15.192781954887215 C 26,15.28824060150375 25.8,16.32144360902257 26,16.236390977443627 C 26.2,16.151338345864684 26.8,14.939849624060171 27,14.767518796992494 C 27.2,14.595187969924817 27,15.370285714285702 27,15.374736842105237 C 27,15.379187969924773 26.8,14.776481203007476 27,14.789774436090177 C 27.2,14.803067669172878 27.8,14.87085714285707 28,15.441203007518745 C 28.2,16.01154887218042 28,17.255157894736875 28,17.64150375939855 C 28,18.027849624060224 27.8,17.628511278195543 28,17.372932330827112 C 28.2,17.11735338345868 28.8,16.48192481203009 29,16.363609022556396 C 29.2,16.245293233082702 29,16.576721804511266 29,16.781353383458637 C 29,16.985984962406008 28.8,17.436751879699276 29,17.38676691729325 C 29.2,17.336781954887226 29.8,16.749533834586423 30,16.531428571428517 C 30.2,16.31332330827061 30,16.599037593984896 30,16.296240601503715 C 30,15.993443609022535 29.8,15.157293233082761 30,15.01744360902261 C 30.2,14.87759398496246 30.8,15.497864661654095 31,15.596992481202964 C 31.2,15.696120300751833 31,15.61996992481205 31,15.513082706766957 C 31,15.406195488721863 30.8,15.267007518797053 31,15.062556390977495 C 31.2,14.858105263157936 31.8,14.688902255639091 32,14.490827067669164 C 32.2,14.292751879699237 32,14.069293233082753 32,14.072180451127863 C 32,14.075067669172974 31.8,14.378766917293218 32,14.505263157894715 C 32.2,14.631759398496213 32.8,14.29064661654135 33,14.704661654135347 C 33.2,15.118676691729343 32.8,15.782015037594022 33,16.575338345864694 C 33.2,17.368661654135366 33.8,18.085172932330824 34,18.67127819548871 C 34.2,19.257383458646597 34,19.64372932330825 34,19.505864661654126 C 34,19.368000000000002 33.8,18.24860150375943 34,17.98195488721809 C 34.2,17.71530827067675 34.8,18.17780451127825 35,18.172631578947417 C 35.2,18.167458646616584 35,18.067729323308303 35,17.956090225563933 C 35,17.844451127819564 34.8,17.757954887218055 35,17.61443609022557 C 35.2,17.470917293233086 35.8,17.137323308270688 36,17.238496240601513 C 36.2,17.33966917293234 36,17.857142857142858 36,18.1203007518797 C 36,18.383458646616543 35.8,18.529563909774442 36,18.554285714285722 C 36.2,18.579007518797003 36.8,18.22682706766919 37,18.24390977443611 C 37.2,18.260992481203026 37,18.52186466165415 37,18.639699248120316 C 37,18.757533834586482 36.8,18.797052631578985 37,18.83308270676694 C 37.2,18.869112781954897 37.8,18.930706766917247 38,18.8198496240601 C 38.2,18.708992481202955 38,18.220511278195488 38,18.278796992481215 C 38,18.337082706766942 37.8,18.773112781954904 38,19.111278195488744 C 38.2,19.449443609022584 38.8,19.899248120300793 39,19.969624060150423 C 39.2,20.040000000000052 39,19.611969924812087 39,19.463157894736888 C 39,19.31434586466169 38.8,19.1906165413534 39,19.225563909774436 C 39.2,19.260511278195473 39.8,19.771729323308243 40,19.637894736842078 C 40.2,19.504060150375913 40,18.71687218045113 40,18.55639097744361 C 40,18.395909774436088 39.8,18.772932330827025 40,18.835488721804477 C 40.2,18.89804511278193 40.8,19.06231578947373 41,18.86917293233087 C 41.2,18.67603007518801 40.8,18.024601503759357 41,17.869774436090175 C 41.2,17.714947368420994 41.8,18.039639097744338 42,18.095037593984955 C 42.2,18.150436090225572 42,18.233323308270702 42,18.146766917293263 C 42,18.060210526315824 41.8,17.870015037594005 42,17.662255639097758 C 42.2,17.45449624060151 42.8,17.204571428571438 43,17.107969924812032 C 43.2,17.011368421052627 43,17.23001503759395 43,17.179248120300727 C 43,17.128481203007503 42.8,16.916932330827105 43,16.85413533834591 C 43.2,16.791338345864713 43.8,16.965894736842138 44,16.86526315789475 C 44.2,16.76463157894736 44,16.264781954887177 44,16.35097744360897 C 44,16.43717293233076 43.8,16.981172932330775 44,17.296240601503715 C 44.2,17.611308270676655 44.8,17.886796992481184 45,17.926315789473662 C 45.2,17.96583458646614 45,17.445533834586396 45,17.49383458646611 C 45,17.542135338345826 44.8,18.046255639097776 45,18.16781954887223 C 45.2,18.289383458646686 45.8,18.39621052631583 46,18.10165413533838 C 46.2,17.807097744360927 46,16.944360902255664 46,16.69503759398498 C 46,16.4457142857143 45.8,17.050105263157906 46,16.85503759398497 C 46.2,16.659969924812035 46.8,15.913864661654136 47,15.719699248120309 C 47.2,15.525533834586481 47,15.810225563909823 47,15.884210526315833 C 47,15.958195488721843 46.8,15.884150375939837 47,16.089624060150364 C 47.2,16.295097744360888 47.8,16.75224060150379 48,16.91157894736846 C 48.2,17.070917293233133 48,16.89190977443613 48,16.88631578947372 C 48,16.88072180451131 47.8,17.084932330827105 48,16.88360902255642 C 48.2,16.682285714285737 48.8,16.067007518796988 49,15.8796992481203 C 49.2,15.692390977443612 48.8,15.853533834586518 49,15.94706766917298 C 49.2,16.040601503759444 49.8,16.29581954887216 50,16.34736842105261 C 50.2,16.398917293233062 50,16.211488721804557 50,16.204812030075228 C 50,16.1981353383459 49.8,16.220451127819512 50,16.313984962405975 C 50.2,16.407518796992438 50.8,16.329323308270677 51,16.672481203007536 C 51.2,17.015639097744394 51,17.78063157894743 51,18.029774436090275 C 51,18.27891729323312 50.8,18.233503759398474 51,17.91819548872177 C 51.2,17.60288721804507 51.8,16.751157894736828 52,16.45323308270676 C 52.2,16.15530827067669 52,16.36366917293233 52,16.42857142857143 C 52,16.49347368421053 51.8,16.65846616541354 52,16.777744360902272 C 52.2,16.897022556391004 52.8,16.65972932330832 53,17.024962406015092 C 53.2,17.390195488721865 53,18.18598496240607 53,18.603909774436143 C 53,19.021834586466216 52.8,19.102075187969977 53,19.114586466165452 C 53.2,19.127097744360928 53.8,19.066827067669173 54,18.666466165413528 C 54.2,18.266105263157883 54,17.666225563909766 54,17.112781954887218 C 54,16.55933834586467 53.8,16.382616541353432 54,15.899248120300795 C 54.2,15.41587969924816 54.8,14.86183458646616 55,14.695939849624043 C 55.2,14.530045112781927 55,14.87903759398496 55,15.069774436090217 C 55,15.260511278195475 54.8,15.66724812030071 55,15.649624060150332 C 55.2,15.631999999999953 55.8,15.039578947368387 56,14.981654135338328 C 56.2,14.923729323308269 56,15.143639097744389 56,15.360000000000035 C 56,15.576360902255681 55.8,15.865924812030093 56,16.06345864661656 C 56.2,16.260992481203026 56.8,16.167879699248164 57,16.34766917293237 C 57.2,16.527458646616576 57,16.869353383458662 57,16.962406015037594 C 57,17.055458646616525 56.8,16.93136842105259 57,16.81293233082703 C 57.2,16.694496240601474 57.8,16.429954887218084 58,16.370225563909813 C 58.2,16.31049624060154 57.8,16.528781954887172 58,16.51428571428567 C 58.2,16.499789473684167 58.8,16.348932330827104 59,16.2977443609023 C 59.2,16.246556390977496 59,16.008421052631586 59,16.258345864661656 C 59,16.508270676691726 58.8,17.22730827067672 59,17.547368421052653 C 59.2,17.867428571428587 59.8,17.777082706766905 60,17.85864661654133 C 60.2,17.940210526315752 60,17.98472180451123 60,17.955187969924765 C 60,17.9256541353383 59.8,17.848120300751855 60,17.710977443609004 C 60.2,17.573834586466152 60.8,17.291308270676673 61,17.269473684210503 C 61.2,17.247639097744333 61,17.710075187969878 61,17.601804511278146 C 61,17.493533834586415 60.8,16.857082706766885 61,16.728120300751854 C 61.2,16.599157894736823 61.8,16.976120300751873 62,16.956992481203 C 62.2,16.937864661654125 62,16.62021052631575 62,16.632481203007483 C 62,16.644751879699218 61.8,17.137864661654145 62,17.01834586466167 C 62.2,16.898827067669192 62.8,16.195127819548862 63,16.034887218045107 C 63.2,15.874646616541352 63,16.040721804511303 63,16.217142857142893 C 63,16.393563909774482 62.8,16.97846616541359 63,16.916992481203057 C 63.2,16.855518796992524 63.8,16.103939849624073 64,15.909774436090224 C 64.2,15.715609022556375 64,15.971789473684176 64,15.946165413533809 C 64,15.920541353383442 63.8,15.757233082706806 64,15.781654135338393 C 64.2,15.806075187969979 64.8,16.062195488721827 65,16.068270676691743 C 65.2,16.07434586466166 65,15.4956992481203 65,15.81203007518797 C 65,16.12836090225564 64.8,17.326496240601518 65,17.649924812030093 C 65.2,17.97335338345867 65.8,17.4973233082707 66,17.42917293233084 C 66.2,17.361022556390978 65.8,17.302496240601464 66,17.309172932330792 C 66.2,17.31584962406012 66.8,17.514105263157926 67,17.462556390977475 C 67.2,17.411007518797025 67,17.26712781954885 67,17.051428571428545 C 67,16.83572932330824 66.8,16.34333834586467 67,16.38406015037595 C 67.2,16.424781954887234 67.8,16.9347969924812 68,17.255037593984948 C 68.2,17.575278195488696 68,18.045233082706726 68,17.98526315789469 C 68,17.92529323308265 67.8,17.15157894736836 68,16.955187969924765 C 68.2,16.75879699248117 68.8,16.89353383458648 69,17.00330827067671 C 69.2,17.113082706766935 69,17.65419548872175 69,17.504060150375892 C 69,17.353924812030034 68.8,16.472240601503792 69,16.252631578947412 C 69.2,16.033022556391032 69.8,16.39945864661654 70,16.406015037593985 C 70.2,16.41257142857143 70,16.23867669172937 70,16.285413533834635 C 70,16.3321503759399 69.8,16.471879699248145 70,16.639699248120312 C 70.2,16.80751879699248 70.8,17.05215037593984 71,17.12451127819547 C 71.2,17.196872180451102 71,16.942676691729307 71,17.001503759398474 C 71,17.06033082706764 70.8,17.203789473684154 71,17.418646616541302 C 71.2,17.63350375939845 71.8,18.063157894736843 72,18.075789473684225 C 72.2,18.088421052631606 72,17.73395488721807 72,17.481804511278206 C 72,17.229654135338343 71.8,16.916992481202968 72,16.81503759398492 C 72.2,16.71308270676687 72.8,16.94117293233081 73,16.97203007518796 C 73.2,17.002887218045107 73,16.95314285714285 73,16.969323308270663 C 73,16.985503759398476 72.8,17.10869172932326 73,17.05293233082702 C 73.2,16.997172932330777 73.8,16.79374436090223 74,16.690526315789448 C 74.2,16.587308270676665 73.8,16.536421052631535 74,16.536842105263112 C 74.2,16.53726315789469 74.8,16.598075187969883 75,16.692631578947335 C 75.2,16.787187969924787 75,17.16529323308268 75,17.009624060150365 C 75,16.853954887218052 74.8,16.416601503759434 75,15.914285714285759 C 75.2,15.411969924812086 75.8,14.863458646616582 76,14.498045112781995 C 76.2,14.132631578947407 76,14.135699248120352 76,14.087218045112825 C 76,14.0387368421053 75.8,14.83615037593986 76,14.25563909774436 C 76.2,13.67512781954886 76.8,12.263097744360891 77,11.184661654135322 C 77.2,10.106225563909753 77,9.25166917293231 77,8.863458646616515 C 77,8.47524812030072 76.8,10.21630075187965 77,9.243609022556347 C 77.2,8.270917293233044 77.8,4.592842105263144 78,4 C 78.2,3.407157894736856 78,5.440721804511303 78,6.279398496240628 C 78,7.118075187969953 77.8,7.317413533834611 78,8.193383458646625 C 78.2,9.06935338345864 78.8,9.864962406014989 79,10.659248120300699 C 79.2,11.453533834586409 79,12.12908270676689 79,12.164812030075176 C 79,12.20054135338346 78.8,11.14658646616543 79,10.837894736842124 C 79.2,10.529203007518817 79.8,10.55921804511279 80,10.621353383458642 C 80.2,10.683488721804494 80,11.236511278195442 80,11.148571428571389 C 80,11.060631578947335 79.8,9.989714285714312 80,10.181654135338372 C 80.2,10.373593984962431 80.8,11.024120300751848 81,12.108270676691685 C 81.2,13.192421052631522 81,14.79043609022552 81,15.602406015037559 C 81,16.4143759398496 80.8,15.552180451127816 81,16.168120300751884 C 81.2,16.784060150375954 81.8,18.409082706766927 82,18.6821052631579 C 82.2,18.955127819548874 82,17.77479699248119 82,17.533233082706754 C 82,17.29166917293232 81.8,17.296481203007524 82,17.474285714285728 C 82.2,17.65209022556393 82.8,18.372090225563934 83,18.42225563909777 C 83.2,18.472421052631606 82.8,17.920541353383488 83,17.725112781954905 C 83.2,17.529684210526323 83.8,17.20523308270674 84,17.445112781954865 C 84.2,17.68499248120299 84,18.698165413533875 84,18.924511278195535 C 84,19.150857142857195 83.8,18.71055639097747 84,18.576842105263164 C 84.2,18.44312781954886 84.8,18.229473684210472 85,18.255939849624014 C 85.2,18.282406015037555 85,18.87717293233086 85,18.70917293233088 C 85,18.5411729323309 84.8,17.80186466165421 85,17.415939849624113 C 85.2,17.030015037594016 85.8,17.07398496240597 86,16.7795488721804 C 86.2,16.48511278195483 86,15.818345864661671 86,15.94375939849627 C 86,16.069172932330872 85.8,17.21365413533837 86,17.406616541353397 C 86.2,17.599578947368425 86.8,17.107368421052602 87,16.908571428571403 C 87.2,16.709774436090203 87,16.725293233082738 87,16.4126315789474 C 87,16.099969924812065 86.8,15.322827067669163 87,15.345263157894724 C 87.2,15.367699248120285 87.8,16.27043609022558 88,16.52481203007521 C 88.2,16.77918796992484 88,16.69828571428574 88,16.61714285714287 C 88,16.536 87.8,16.169082706766897 88,16.119097744360875 C 88.2,16.069112781954853 88.8,16.254075187969892 89,16.367218045112757 C 89.2,16.480360902255622 89,16.581413533834585 89,16.6848120300752 C 89,16.788210526315815 88.8,16.385383458646658 89,16.884210526315833 C 89.2,17.38303759398501 89.8,18.041323308270716 90,19.178947368421078 C 90.2,20.31657142857144 90,22.160120300751853 90,22.572330827067635 C 90,22.984541353383417 89.8,21.42965413533833 90,21.239999999999988 C 90.2,21.050345864661647 90.8,21.49046616541354 91,21.62406015037594 C 91.2,21.75765413533834 90.8,21.959879699248088 91,21.90796992481199 C 91.2,21.856060150375892 91.8,21.47813533834583 92,21.364511278195458 C 92.2,21.250887218045087 92,21.594887218045077 92,21.33984962406013 C 92,21.08481203007518 91.8,20.31735338345868 92,20.08932330827071 C 92.2,19.86129323308274 92.8,20.328360902255618 93,20.199699248120282 C 93.2,20.071037593984947 93,19.591097744360948 93,19.446015037594037 C 93,19.300932330827127 92.8,19.443187969924836 93,19.474285714285728 C 93.2,19.50538345864662 93.8,19.629413533834583 94,19.601503759398497 C 94.2,19.57359398496241 94,19.271338345864688 94,19.334736842105293 C 94,19.3981353383459 93.8,19.65714285714288 94,19.91849624060153 C 94.2,20.179849624060182 94.8,20.62369924812036 95,20.64150375939855 C 95.2,20.65930827067674 95,20.447759398496252 95,20.00751879699248 C 95,19.567278195488704 94.8,18.70514285714283 95,18.440300751879683 C 95.2,18.175458646616534 95.8,18.730165413533875 96,18.683308270676726 C 96.2,18.636451127819576 96,18.439097744360858 96,18.20601503759394 C 96,17.97293233082702 95.8,17.623518796992503 96,17.51789473684214 C 96.2,17.41227067669178 96.8,17.569804511278235 97,17.67789473684213 C 97.2,17.785984962406026 97,18.0694736842105 97,18.058345864661614 C 97,18.04721804511273 96.8,17.48637593984958 97,17.622255639097702 C 97.2,17.758135338345824 97.8,18.499969924811978 98,18.73774436090222 C 98.2,18.97551879699246 98,18.847157894736867 98,18.811127819548908 C 98,18.77509774436095 97.8,18.341714285714314 98,18.55759398496243 C 98.2,18.773473684210547 98.8,19.555368421052663 99,19.89052631578949 C 99.2,20.225684210526317 99,20.16481203007515 99,20.233383458646568" stroke-width="1.7"></path></svg>